<svg xmlns="http://www.w3.org/2000/svg" width="375" viewBox="0 0 375 30" height="30" version="1.0"><g><g><g><path d="M 19.769531 -10.5 C 23.847656 -12.390625 23.1875 -21 18 -21 L 2.25 -21 C 1.769531 -21 1.46875 -20.636719 1.46875 -20.1875 L 1.46875 -0.808594 C 1.46875 -0.359375 1.769531 0 2.25 0 L 18.269531 0 C 23.457031 0 24.027344 -8.667969 19.769531 -10.5 Z M 2.21875 -10.859375 L 2.21875 -20.277344 L 18 -20.277344 C 22.738281 -20.277344 22.976562 -10.859375 18.058594 -10.859375 Z M 18.269531 -0.75 L 2.21875 -0.75 L 2.21875 -10.140625 L 18.058594 -10.140625 C 23.039062 -10.140625 23.066406 -0.75 18.269531 -0.75 Z M 18.269531 -0.75" transform="translate(7.763 25.306)"/></g></g></g><g><g><g><path d="M 18.179688 0 C 20.367188 0 22.40625 -2.011719 22.40625 -4.199219 L 22.40625 -16.738281 C 22.40625 -18.929688 20.308594 -21 18.148438 -21 L 5.730469 -21 C 3.570312 -21 1.46875 -18.929688 1.46875 -16.738281 L 1.46875 -4.199219 C 1.46875 -2.011719 3.507812 0 5.699219 0 Z M 18.117188 -20.25 C 19.949219 -20.25 21.660156 -18.507812 21.660156 -16.707031 L 21.660156 -4.199219 C 21.660156 -2.398438 19.949219 -0.75 18.148438 -0.75 L 5.730469 -0.75 C 3.929688 -0.75 2.21875 -2.398438 2.21875 -4.199219 L 2.21875 -16.707031 C 2.21875 -18.507812 3.929688 -20.25 5.757812 -20.25 Z M 18.117188 -20.25" transform="translate(31.19 25.306)"/></g></g></g><g><g><g><path d="M 18.179688 0 C 20.367188 0 22.40625 -2.011719 22.40625 -4.199219 L 22.40625 -16.738281 C 22.40625 -18.929688 20.308594 -21 18.148438 -21 L 5.730469 -21 C 3.570312 -21 1.46875 -18.929688 1.46875 -16.738281 L 1.46875 -4.199219 C 1.46875 -2.011719 3.507812 0 5.699219 0 Z M 18.117188 -20.25 C 19.949219 -20.25 21.660156 -18.507812 21.660156 -16.707031 L 21.660156 -4.199219 C 21.660156 -2.398438 19.949219 -0.75 18.148438 -0.75 L 5.730469 -0.75 C 3.929688 -0.75 2.21875 -2.398438 2.21875 -4.199219 L 2.21875 -16.707031 C 2.21875 -18.507812 3.929688 -20.25 5.757812 -20.25 Z M 18.117188 -20.25" transform="translate(54.767 25.306)"/></g></g></g><g><g><g><path d="M 1.5 -20.636719 L 1.5 -0.328125 C 1.5 0.210938 2.25 0.210938 2.25 -0.328125 L 2.25 -4.078125 L 10.378906 -10.769531 L 21.507812 0 C 21.898438 0.359375 22.4375 -0.148438 22.046875 -0.539062 L 10.949219 -11.25 L 22.019531 -20.398438 C 22.378906 -20.699219 21.898438 -21.269531 21.476562 -20.9375 L 2.25 -5.039062 L 2.25 -20.636719 C 2.25 -21.179688 1.5 -21.179688 1.5 -20.636719 Z M 1.5 -20.636719" transform="translate(78.344 25.306)"/></g></g></g><g><g><g><path d="M 18.449219 0 C 24.058594 0 24.027344 -10.828125 18.539062 -10.828125 L 5.519531 -10.828125 C 0.929688 -10.828125 0.871094 -20.25 5.460938 -20.25 L 21.296875 -20.25 C 21.808594 -20.25 21.808594 -21 21.296875 -21 L 5.460938 -21 C -0.0898438 -21 -0.121094 -10.078125 5.550781 -10.078125 L 18.386719 -10.078125 C 23.007812 -10.050781 23.066406 -0.75 18.476562 -0.75 L 1.980469 -0.75 C 1.5 -0.75 1.5 0 1.980469 0 Z M 18.449219 0" transform="translate(101.441 25.306)"/></g></g></g><g><g><g><path d="M 21.359375 -21 L 5.488281 -21 C 3.328125 -21 1.46875 -19.136719 1.46875 -17.007812 L 1.46875 -3.929688 C 1.46875 -1.800781 3.300781 0.03125 5.488281 0.03125 L 21.359375 0.03125 C 21.898438 0.03125 21.898438 -0.71875 21.359375 -0.71875 L 5.488281 -0.71875 C 3.691406 -0.71875 2.21875 -2.160156 2.21875 -3.929688 L 2.21875 -16.980469 C 2.21875 -18.777344 3.691406 -20.25 5.488281 -20.25 L 21.359375 -20.25 C 21.898438 -20.25 21.898438 -21 21.359375 -21 Z M 21.359375 -21" transform="translate(136.087 25.306)"/></g></g></g><g><g><g><path d="M 18.179688 0 C 20.367188 0 22.40625 -2.011719 22.40625 -4.199219 L 22.40625 -16.738281 C 22.40625 -18.929688 20.308594 -21 18.148438 -21 L 5.730469 -21 C 3.570312 -21 1.46875 -18.929688 1.46875 -16.738281 L 1.46875 -4.199219 C 1.46875 -2.011719 3.507812 0 5.699219 0 Z M 18.117188 -20.25 C 19.949219 -20.25 21.660156 -18.507812 21.660156 -16.707031 L 21.660156 -4.199219 C 21.660156 -2.398438 19.949219 -0.75 18.148438 -0.75 L 5.730469 -0.75 C 3.929688 -0.75 2.21875 -2.398438 2.21875 -4.199219 L 2.21875 -16.707031 C 2.21875 -18.507812 3.929688 -20.25 5.757812 -20.25 Z M 18.117188 -20.25" transform="translate(158.914 25.306)"/></g></g></g><g><g><g><path d="M 1.46875 -20.789062 L 1.46875 -4.019531 C 1.46875 -1.828125 3.300781 0 5.488281 0 L 20.96875 0 C 21.507812 0 21.507812 -0.75 20.96875 -0.75 L 5.488281 -0.75 C 3.691406 -0.75 2.21875 -2.21875 2.21875 -4.019531 L 2.21875 -20.789062 C 2.21875 -21.296875 1.46875 -21.296875 1.46875 -20.789062 Z M 1.46875 -20.789062" transform="translate(182.491 25.306)"/></g></g></g><g><g><g><path d="M 1.46875 -20.789062 L 1.46875 -4.019531 C 1.46875 -1.828125 3.300781 0 5.488281 0 L 20.96875 0 C 21.507812 0 21.507812 -0.75 20.96875 -0.75 L 5.488281 -0.75 C 3.691406 -0.75 2.21875 -2.21875 2.21875 -4.019531 L 2.21875 -20.789062 C 2.21875 -21.296875 1.46875 -21.296875 1.46875 -20.789062 Z M 1.46875 -20.789062" transform="translate(204.899 25.306)"/></g></g></g><g><g><g><path d="M 18.238281 -10.078125 C 24.148438 -10.078125 24.027344 -21 18.238281 -21 L 6.238281 -21 C 3.269531 -21 1.46875 -18.449219 1.46875 -15.898438 L 1.46875 -4.890625 C 1.46875 -2.339844 2.878906 0 5.847656 0 L 21.507812 0 C 22.019531 0 22.019531 -0.75 21.507812 -0.75 L 5.847656 -0.75 C 3.539062 -0.75 2.25 -2.578125 2.25 -4.917969 L 2.21875 -10.078125 Z M 18.238281 -20.25 C 22.949219 -20.25 23.128906 -10.828125 18.238281 -10.828125 L 2.21875 -10.828125 L 2.25 -15.867188 C 2.25 -18.207031 3.929688 -20.25 6.238281 -20.25 Z M 18.238281 -20.25" transform="translate(227.306 25.306)"/></g></g></g><g><g><g><path d="M 21.359375 -21 L 5.488281 -21 C 3.328125 -21 1.46875 -19.136719 1.46875 -17.007812 L 1.46875 -3.929688 C 1.46875 -1.800781 3.300781 0.03125 5.488281 0.03125 L 21.359375 0.03125 C 21.898438 0.03125 21.898438 -0.71875 21.359375 -0.71875 L 5.488281 -0.71875 C 3.691406 -0.71875 2.21875 -2.160156 2.21875 -3.929688 L 2.21875 -16.980469 C 2.21875 -18.777344 3.691406 -20.25 5.488281 -20.25 L 21.359375 -20.25 C 21.898438 -20.25 21.898438 -21 21.359375 -21 Z M 21.359375 -21" transform="translate(250.853 25.306)"/></g></g></g><g><g><g><path d="M 21.898438 -10.289062 C 22.4375 -10.289062 22.4375 -11.007812 21.898438 -11.007812 L 2.21875 -11.007812 L 2.21875 -20.726562 C 2.21875 -21.207031 1.46875 -21.207031 1.46875 -20.726562 L 1.46875 -4.257812 C 1.46875 -1.710938 3.71875 0 6.089844 0 L 21.929688 0 C 22.4375 0 22.4375 -0.75 21.929688 -0.75 L 6.121094 -0.75 C 4.140625 -0.75 2.21875 -2.128906 2.21875 -4.289062 L 2.21875 -10.289062 Z M 21.898438 -10.289062" transform="translate(273.68 25.306)"/></g></g></g><g><g><g><path d="M 11.730469 -0.75 L 11.730469 -20.25 L 21.207031 -20.25 C 21.71875 -20.25 21.71875 -21 21.207031 -21 L 1.53125 -21 C 1.019531 -21 1.019531 -20.25 1.5 -20.25 L 10.980469 -20.25 L 10.980469 -0.75 L 1.5 -0.75 C 1.019531 -0.75 1.019531 0 1.53125 0 L 21.207031 0 C 21.71875 0 21.71875 -0.75 21.207031 -0.75 Z M 11.730469 -0.75" transform="translate(297.017 25.306)"/></g></g></g><g><g><g><path d="M 18.179688 0 C 20.367188 0 22.40625 -2.011719 22.40625 -4.199219 L 22.40625 -16.738281 C 22.40625 -18.929688 20.308594 -21 18.148438 -21 L 5.730469 -21 C 3.570312 -21 1.46875 -18.929688 1.46875 -16.738281 L 1.46875 -4.199219 C 1.46875 -2.011719 3.507812 0 5.699219 0 Z M 18.117188 -20.25 C 19.949219 -20.25 21.660156 -18.507812 21.660156 -16.707031 L 21.660156 -4.199219 C 21.660156 -2.398438 19.949219 -0.75 18.148438 -0.75 L 5.730469 -0.75 C 3.929688 -0.75 2.21875 -2.398438 2.21875 -4.199219 L 2.21875 -16.707031 C 2.21875 -18.507812 3.929688 -20.25 5.757812 -20.25 Z M 18.117188 -20.25" transform="translate(319.874 25.306)"/></g></g></g><g><g><g><path d="M 1.46875 -17.097656 L 1.46875 -0.359375 C 1.46875 0.148438 2.21875 0.148438 2.21875 -0.359375 L 2.21875 -17.097656 C 2.21875 -21.71875 11.699219 -21.660156 11.699219 -17.039062 L 11.699219 -4.199219 C 11.699219 1.46875 22.589844 1.441406 22.589844 -4.109375 L 22.589844 -20.816406 C 22.589844 -21.296875 21.839844 -21.296875 21.839844 -20.816406 L 21.839844 -4.109375 C 21.839844 0.511719 12.390625 0.449219 12.390625 -4.167969 L 12.390625 -17.1875 C 12.359375 -22.617188 1.46875 -22.648438 1.46875 -17.097656 Z M 1.46875 -17.097656" transform="translate(343.451 25.306)"/></g></g></g></svg>